# xmcd
# 
# Track frame offsets:
#     150
#     13515
#     27227
#     38262
#     49965
#     62935
#     93045
#     104917
#     116605
#     128472
#     138255
#     154390
#     165422
#     178352
#     190200
#     202420
#     208417
# 
# Disc length: 2990
# 
# Revision: 1
# Processed by: cddbd v1.5.2PL0 Copyright (c) Steve Scherf et al.
# Submitted via: fre:ac v1.0.17
# 
DISCID=f60bac11
DTITLE=Charley Pride - Together
DYEAR=2000
DGENRE=Country
TTITLE0=Kav-Liga
TTITLE1=I'm So Afraid Of Losing You 
TTITLE2=Oklahoma Moring
TTITLE3=It's Going To Take A Little bit Longer
TTITLE4=Crystal Chandeliers
TTITLE5=Medley\nToo Good To Be Tru
TTITLE6=Shutters And Boards
TTITLE7=Happiness Of Having You
TTITLE8=My Eyes Can Only See As Far As You
TTITLE9=Kiss An Angel Good Morning
TTITLE10=Let Me Live In The Light Of His Love 
TTITLE11=Mississipi Cotton Picking Delta Town
TTITLE12=Help Me Make It Throught The Night
TTITLE13=Louisiana Man
TTITLE14=There Goes My Everything
TTITLE15=Lovesick Blues
TTITLE16=Me And Bobby McGee
EXTD=
EXTT0=
EXTT1=
EXTT2=
EXTT3=
EXTT4=
EXTT5=Does My Ring Hurt your Finger;\nToo Good To Be True;\nI'd Rather Love You;\nAll I Have To Offer You Is Me;\nI Wonder Could I Live There Anymore;\nIs Anybody Going To San Antone;\nI'm Just Me.
EXTT6=
EXTT7=
EXTT8=
EXTT9=
EXTT10=
EXTT11=
EXTT12=
EXTT13=
EXTT14=
EXTT15=
EXTT16=
PLAYORDER=
